<?xml version="1.0" encoding="UTF-8"?><!DOCTYPE svg PUBLIC "-//W3C//DTD SVG 1.1//EN" "http://www.w3.org/Graphics/SVG/1.1/DTD/svg11.dtd"><svg xmlns="http://www.w3.org/2000/svg"><symbol id="icon-bulb" viewBox="0 0 431.76 431.76"><path d="M215.88 85.12C153.556 85.164 103.044 135.676 103 198a128.48 128.48 0 0 0 53.36 102.48V382c.027.932.216 1.853.56 2.72v.64c.138.33.299.651.48.96l28.16 41.92a7.999 7.999 0 0 0 6.64 3.52h46.56a7.999 7.999 0 0 0 6.64-3.52l28.16-41.92c.181-.309.342-.63.48-.96v-.64a8.005 8.005 0 0 0 .56-2.72v-81.52A128.477 128.477 0 0 0 327.96 198c-.042-62.013-50.069-112.397-112.08-112.88zM234.92 416h-38.08l-17.44-25.92h72.88L234.92 416zm-62.48-41.92v-21.2h86.88l.08 21.2h-86.96zM263 289.52v.24a7.998 7.998 0 0 0-3.6 6.72v40.64h-86.96V296a7.998 7.998 0 0 0-3.6-6.72 112.001 112.001 0 0 1-49.76-91.52c1.537-53.483 46.14-95.594 99.623-94.057 51.323 1.475 92.582 42.734 94.057 94.057A112 112 0 0 1 263 289.52z" fill="#0e69ab"/><path d="M219.08 121.36a8 8 0 0 0 0 16c33.251.044 60.196 26.989 60.24 60.24a8 8 0 0 0 16 0c-.044-42.088-34.152-76.196-76.24-76.24zM81.48 189.6h-57.6a8 8 0 0 0 0 16h57.6a8 8 0 0 0 0-16zm326.4 0h-57.6a8 8 0 0 0 0 16h57.6a8 8 0 0 0 0-16zm-280.567 97.52a8 8 0 0 0-12.153 0v-.16L74.28 328a8 8 0 1 0 11.28 11.28l40.88-40.88a8 8 0 0 0 .873-11.28zM356.607 56a8 8 0 0 0-10.407 0l-40.88 40.88a8 8 0 0 0 5.68 13.68l-.08-.08a8.004 8.004 0 0 0 5.68-2.32l40.88-40.88a8 8 0 0 0-.873-11.28zm2.46 273.609A7.96 7.96 0 0 0 357.48 328l-40.88-41.04a8 8 0 1 0-11.28 11.28l40.88 40.88a8 8 0 0 0 12.867-9.511zM126.44 96.88L85.56 56a8 8 0 0 0-11.28 11.28l40.88 40.88a8 8 0 0 0 11.28-11.28zM215.88 0a8 8 0 0 0-8 8v57.84a8 8 0 0 0 8 8.24 8 8 0 0 0 8-8V8a8 8 0 0 0-8-8z" fill="#0e69ab"/></symbol><symbol id="icon-roof" viewBox="0 0 511.999 511.999"><path d="M246.858 33.002c-.794-4.319-4.937-7.172-9.256-6.383-29.545 5.43-46.818 23.145-60.697 37.38-14.443 14.814-23.983 24.6-44.933 24.6-20.949 0-30.49-9.785-44.934-24.6C70.992 47.541 49.014 24.998 7.95 24.998A7.95 7.95 0 0 0 0 32.948v102.207a7.95 7.95 0 0 0 15.9 0V41.239C45.134 43.8 61.278 60.355 75.656 75.103c13.158 13.495 24.79 25.408 45.189 28.571v226.529a7.95 7.95 0 0 0 15.9 0V104.356c24.463-1.483 37.078-14.417 51.546-29.256 12.945-13.278 27.618-28.327 52.185-32.841a7.95 7.95 0 0 0 6.382-9.257z"/><path d="M504.05 24.998c-41.063 0-63.042 22.542-79.092 39.003C410.515 78.814 400.972 88.6 380.023 88.6c-20.951 0-30.492-9.786-44.937-24.601-13.877-14.232-31.148-31.945-60.686-37.377a7.95 7.95 0 1 0-2.876 15.638c24.562 4.516 39.233 19.563 52.178 32.839 14.471 14.841 27.088 27.774 51.554 29.256v98.642a7.95 7.95 0 0 0 15.9 0v-99.325c20.397-3.164 32.029-15.077 45.189-28.574 14.377-14.745 30.521-31.3 59.756-33.861v334.759c-36.009 2.685-56.161 23.34-71.139 38.702l-.002.002c-11.61 11.906-20.057 20.561-33.803 23.5V245.4a7.95 7.95 0 0 0-15.9 0v193.712c-17.719-1.401-26.87-10.772-40.169-24.412-16.049-16.459-38.028-39.001-79.091-39.001s-63.041 22.543-79.089 39.002c-13.296 13.638-22.446 23.009-40.161 24.411v-66.507a7.95 7.95 0 0 0-15.9 0v65.596c-13.747-2.938-22.194-11.593-33.806-23.502-14.979-15.362-35.13-36.018-71.139-38.702v-189.96c0-4.391-3.56-7.95-7.95-7.95S0 181.647 0 186.037v229.411a7.95 7.95 0 0 0 7.95 7.95c20.949 0 30.49 9.785 44.934 24.6C68.932 464.457 90.91 487 131.973 487c41.063 0 63.041-22.543 79.089-39.002 14.443-14.814 23.983-24.6 44.933-24.6s30.492 9.786 44.937 24.601C316.98 464.458 338.959 487 380.022 487c41.064 0 63.043-22.542 79.091-39.001 14.444-14.814 23.986-24.601 44.936-24.601a7.95 7.95 0 0 0 7.95-7.95v-382.5a7.95 7.95 0 0 0-7.949-7.95zm-7.951 382.905c-22.408 2.367-34.54 14.812-48.371 28.997-15.631 16.031-33.347 34.201-67.706 34.201s-52.075-18.17-67.708-34.203c-15.381-15.776-28.666-29.399-56.32-29.399-27.653 0-40.938 13.625-56.318 29.4-15.63 16.032-33.346 34.202-67.704 34.202-34.359 0-52.075-18.17-67.706-34.204-13.828-14.182-25.964-26.626-48.367-28.993v-15.965c29.234 2.561 45.377 19.116 59.756 33.864 15.381 15.774 28.665 29.398 56.317 29.398 27.653 0 40.938-13.625 56.318-29.4 15.63-16.032 33.346-34.202 67.704-34.202 34.359 0 52.076 18.17 67.706 34.201 15.382 15.777 28.667 29.401 56.321 29.401s40.939-13.625 56.32-29.399l.002-.001c14.377-14.745 30.521-31.3 59.756-33.861v15.963z"/></symbol></svg>