<svg version="1" xmlns="http://www.w3.org/2000/svg" width="1228" height="1214.667" viewBox="0 0 921.000000 911.000000"><path d="M628.6 93.5L536.7 186l-212.6-.2-212.6-.3-.3-70.1-.2-70-8.3-1.4c-10.1-1.7-26.2-1.8-34.2 0-26.1 5.5-48 23.9-64.4 54L0 105.5v301.2C0 577.2.4 708 .9 708s1.2 2.4 1.5 5.2c1.5 11 14 37.5 24 50.9 8.3 11 18.7 20.8 30 28.1l9.1 5.8h233.9c128.6 0 234 .1 234.2.3.2.1-24.6 25.2-55.1 55.7-30.5 30.5-55.5 55.8-55.5 56.2 0 .5 111.8.8 248.5.8H920V413.6l-12.2 11.9c-6.8 6.6-22.4 21.9-34.8 34.2-12.3 12.2-22.5 22.1-22.6 22-.2-.2 1.2-166.8 2-241l.6-54.7H724.6l49.2-49.3c27.1-27.2 49.2-49.9 49.2-50.5 0-2.1-4.6-13.5-8.8-21.7-11.6-23-30.1-41-53.5-52-10.5-5-27.6-10.3-35.1-11l-5.1-.4-91.9 92.4zm108.6-70.9c18.5 5.8 32 13.9 44 26.2 8 8.2 12.4 14.5 18.1 25.8l3.6 7.1-18.2 18.1-18.2 18.1-16-13.1c-8.8-7.1-25.5-21.2-37.2-31.1l-21.2-18.2 17.7-17.8c9.7-9.7 18-17.7 18.4-17.7.4 0 4.4 1.2 9 2.6zM93 136.7c0 76.8 1.5 332.7 2.4 416.5L96 599l-2.8.6c-22.2 4.7-47.5 22-66.5 45.4-3.3 4.1-6.4 7.9-6.9 8.5-.4.5-.8-122-.8-272.1v-273l5.1-8.7c5.8-9.6 15.5-20.7 22.8-26.1C58.5 65.1 70 61.2 84.3 61.1L93 61v75.7zm611.5-54.6c9.9 8.5 26 21.9 35.8 29.9 9.7 7.9 17.7 14.6 17.7 14.9 0 .4-7.9 8.5-17.5 18.1-16.2 16.2-17.5 17.3-19.2 15.8-1-.8-9.4-7.7-18.8-15.3-9.3-7.6-25.4-21.1-35.7-29.9L648 99.5l17.7-17.7C681 66.5 683.6 64.2 685 65.4c.8.7 9.6 8.2 19.5 16.7zM665 130c8 6.9 22.3 18.8 31.8 26.5 9.5 7.6 17.1 14.3 17 14.7-.2.3-19.9 20.4-43.8 44.5s-88.9 89.6-144.4 145.6C470 417.2 424.2 463 423.8 463c-.5 0-4.3-3.3-8.6-7.3-4.3-3.9-20.2-18.8-35.5-33-15.2-14.2-27.7-26.1-27.7-26.5 0-.4 64.7-65.4 143.7-144.4l143.7-143.7 5.5 4.7c3.1 2.6 12.1 10.3 20.1 17.2zm172 218.5v146.4L691 641.2c-80.3 80.4-146 145.7-146 145 0-.9-51.7-1.2-238.5-1.2H67.9l-5.7-3.6c-7.7-5-22.8-20.2-28.9-29.4-7.9-11.8-14.4-26.1-17.3-38.1-1.1-4.2-.9-5.6 2-15 10.7-34.5 38.9-66.2 70.4-79 5.9-2.4 8.6-2.9 15.4-2.9 8.1 0 8.3-.1 9.3-2.8 1-2.4-.1-264.2-1.5-377l-.5-34.2h408.4l-94.7 94.7-94.7 94.8-19.2 63.5c-10.6 34.9-19.6 64.1-20.2 64.7-.7 1-8.1 1.3-30.8 1.3H230v17h397v-17H481.8c-81.8 0-144.8-.4-144.3-.9.6-.4 21.7-9 47-19.1 34.9-13.8 46.6-18.8 48.3-20.8 3.8-4.4 24.8-25.7 147.3-149.2 64.1-64.6 119.2-120.3 122.4-123.8l5.9-6.2H837v146.5zm-468.8 88.2c35.3 32.9 39 36.4 38.6 36.7-.7.6-13.9 4.6-31.7 9.7-14.3 4-18.5 4.8-19.1 3.8-.5-.7-1.1-4.3-1.5-8.1-.8-7.8.1-7.4-12.9-5.3-4.9.8-9 1.4-9.1 1.2-.1-.1.6-8.8 1.5-19.2 1.4-15.6 2.3-21 5.1-30.2 1.9-6.2 3.7-11.3 4.1-11.3.3 0 11.6 10.2 25 22.7zM903 522.5V589h-49v16h49v49h-49v16h49v48h-49v16h49l-.2 23.7-.3 23.8-24.3.3-24.3.2.3 7.8.3 7.7 24 .1 24 .2.3 47.6.2 47.6H464.5l87.5-87.8C698.9 657.8 901.3 456 902.2 456c.4 0 .8 29.9.8 66.5z"/><path d="M731.3 717.2c-46.3 46.3-84 84.4-83.8 84.7.2.3 38.4.5 84.9.3l84.6-.2v-84.5c0-46.5-.3-84.5-.7-84.5-.4 0-38.6 37.9-85 84.2zm67.7 13.1v54.4l-53.7-.5c-29.6-.2-53.9-.5-54-.6-.4-.4 106.1-107.6 106.9-107.6.4 0 .8 24.5.8 54.3z"/></svg>