<svg version="1" xmlns="http://www.w3.org/2000/svg" width="2049.333" height="1114.667" viewBox="0 0 1537.000000 836.000000"><path d="M389.8 1.5c-4.3.8-23.4 6.6-42.5 12.9-49.3 16.2-73.9 22.5-99.1 25.5-13.1 1.6-38 1.4-48.7-.3-4.9-.9-9-1.4-9.1-1.3-.1.1-6.3 24-13.8 53.2-7.4 29.1-17.8 69.6-23 90-5.2 20.3-14.7 57.5-21.1 82.5-6.4 25-13.4 52.2-15.5 60.5-5.1 19.6-17.9 69.8-56.5 220.5C43.1 612.9 26.2 678.8 23 691.5 4.5 763.2 3.2 769 4.5 769c1.1 0 1.3 1.1.9 4.7-.3 2.7-1.6 15.1-2.8 27.6L.4 824.1l2.1.4c11.3 2.4 64.1 3.3 86 1.5 58.8-4.8 120.9-20.2 180.7-44.6l11-4.5 9.2 5.4c40.7 24.3 79.9 38.6 116.8 42.6 31.8 3.5 93.8-2.4 138.8-13 15.9-3.8 32.5-9.1 55.3-17.6 12.5-4.6 25.5-8.9 29-9.4 3.6-.7 11.2-.8 18.2-.4 14.3.8 22.8 3.3 47.5 13.7 60.5 25.6 96.1 30.2 168.5 21.8 51.2-6 124.3-22.1 147.2-32.5 6-2.7 11.5-4.5 13.6-4.5 2.2 0 15.8 4.6 33.9 11.4 60.2 22.6 87.2 30.5 125.8 37 40.4 6.8 76.1 4.7 118.3-7 27.9-7.7 57.4-20 82-34.2 7.5-4.3 8.1-4.4 13.5-3.8 14 1.5 31 7.1 61.7 20.1 33.8 14.4 47.9 18.7 66.3 20.5 5.8.5 10.7.8 10.9.6.2-.1-.4-14.6-1.3-32.1-1.2-23.9-1.3-32-.4-32.5 1.1-.7-8.9-39.2-48.5-188.5-3.5-13.2-17-64.3-30-113.5s-27.6-104.6-32.5-123c-4.9-18.4-17.2-65-27.4-103.5-38.8-147.1-49.7-187.9-49.9-188.1-.1-.1-3.3-1.2-7.2-2.4-11-3.6-21.8-9.4-38.3-20.7-27.3-18.6-31.6-20.5-46.5-20.4-5.4 0-10.6.5-11.5 1-.9.5-3.7 1.2-6.2 1.6-5.2.8-34.1 7.4-74 16.9-84.8 20.2-107.1 21.9-132.8 10.1-9-4.2-13.8-7.2-28.7-17.8-12.5-9-20.2-13.2-26-14.1-5.2-.9-21.3 2.3-64.5 12.5-97.7 23.3-131 29.8-146.4 28.6-9.6-.8-21-6.7-41.1-21.3-26.8-19.4-33.2-21.6-47.1-17-29.9 10.1-115 30.1-160.9 37.7-17.3 2.9-35.8 3.1-43.5.5-10.3-3.5-21.3-10-37.8-22.3C417 6.4 408.2 1.4 401.5.6c-2.2-.3-7.5.1-11.7.9zM386 22.2c-.1 3.8-12 72.2-12.8 73-1.3 1.3-26 10.1-41.2 14.7-25.8 7.8-64.1 15.5-106.2 21.2l-16.7 2.3-.3 8.9-.3 9 9-.7c23.3-1.8 65.4-8.8 90.7-15.1 14.3-3.6 38.6-10.8 50.8-15 5.6-2 10.5-3.4 10.8-3.1.3.3-3.1 22.2-7.4 48.7l-7.9 48.2-5.2 2.3c-10 4.5-40.9 14.3-57.3 18.3-22.1 5.4-44.3 9.5-75.5 14l-26 3.7-.3 9.2c-.3 9.2-.3 9.3 2 8.8 1.3-.3 5.5-.8 9.3-1.1 44.6-4 102.4-16.5 140.4-30.4 4.7-1.7 8.6-3.1 8.8-3.1.1 0 0 1.2-.3 2.7-.2 1.6-4.5 27.5-9.4 57.8-5 30.2-9.3 56.2-9.6 57.7-.5 2.4-1.8 3.1-12.7 7.1-39.7 14.6-80 23.8-136.2 31.2-18.3 2.4-16.5 1.1-16.5 11.5 0 8.8 0 9 2.3 8.6 1.2-.3 5.8-.8 10.2-1.1 40.5-3.1 101.2-16.5 141.1-30.9 3.7-1.4 7-2.3 7.3-2 .2.2-1 9.3-2.8 20.2-12.9 78.8-19.2 117.1-19.7 119.4-.4 2.3-1.7 3.1-8.2 5.6-30.5 11.6-72 22.3-115.7 29.7-16.5 2.8-52.3 7.5-56.9 7.5h-2.9l.7 6.1c.3 3.4.6 7.5.6 9.2v3l11.1-.7c17.2-1 56.9-7 84.9-12.7 25.9-5.3 56-13.8 75.3-21.2 5.5-2.1 6.7-2.3 6.7-1.1 0 1.5-9.7 61.4-21.5 132.3-3.5 21.1-6.8 38.8-7.3 39.3-1.5 1.5-20.3 8.8-36.7 14.3C180.9 747.4 125 755 56.6 753.7c-16.4-.3-30-.7-30.2-.9-.1-.2.6-3.7 1.7-7.8s5.7-22.4 10.3-40.5c11-42.9 49.3-192.5 55.6-217 2.7-10.5 16.4-64 30.5-119 14.1-55 34-132.6 44.2-172.5 10.2-39.9 22.2-86.9 26.8-104.5l8.1-32 19.5-.1c36.8-.3 65.4-6.4 129.9-27.9 17.3-5.7 31.8-10.4 32.3-10.5.4 0 .7.6.7 1.2zm316.6 5.7c26.1 18.3 31.2 21.6 39.7 25.6 5.1 2.4 10.8 4.6 12.8 5 6.6 1.2 6.2-1.9 5.3 44.8l-.9 42.5-15-11.9c-8.2-6.5-15-11.7-15.1-11.6-1.9 2-10.4 13.1-10.4 13.7 0 .4 9.2 8 20.5 17l20.5 16.4-.6 45c-.4 24.8-.8 45.2-.8 45.3-.1.1-5.8-4.2-12.7-9.7-6.8-5.4-12.8-9.9-13.4-9.9-.5 0-3.3 3-6.1 6.6l-5.2 6.6 8.2 6.6c4.4 3.6 13 10.4 18.9 15.1l10.9 8.5-.6 10c-.3 5.5-.7 30.5-.8 55.5-.1 25-.5 49.2-.8 53.7l-.5 8.3-16.3-13.1c-12.2-9.6-16.7-12.7-17.7-11.9-.6.5-3.3 3.6-5.8 6.9l-4.6 5.8 22.5 17.9 22.5 17.9-.7 68c-.3 37.4-.8 68.1-.9 68.3-.2.2-8.5-6.2-18.6-14.2-10-8-18.6-14.6-19-14.6-.8 0-10.9 12.4-10.9 13.3 0 .3 10.9 9.2 24.2 19.8l24.1 19.3-.7 78.5c-.4 43.2-.9 78.7-1 78.9-.7.6-21.5-4.8-31.1-8.1-17.4-6-38.5-15.9-52-24.5l-5.9-3.8.2-7.9c1.3-40.2 10.5-284.9 15.7-418 3.6-91.3 7.2-183.3 8-204.5 2-52.3 2.6-64 3.5-64 .4 0 5.1 3.1 10.6 6.9zm257.8-1.7c.6 5 5.4 63.9 5.9 72.2l.2 3.8-12.5 4.9c-31.3 12.4-65.1 20.9-109 27.4-25.9 3.8-26.5 3.9-26.5 5 .3 6 1.9 16.5 2.6 16.5 3.5 0 38.4-4.5 50.9-6.6 26.4-4.4 56.9-13 86-24.4 9.9-3.8 10-3.8 10.4-1.7.3 1.2 2.1 22.7 4.1 47.7 2 25 3.8 46.9 4.1 48.6.5 2.9.3 3.1-5.3 5.3-30.3 11.9-59 17.9-118.1 24.7-17.7 2.1-32.7 4.1-33.3 4.4-.7.5-.7 3.2.1 9.1.6 4.6 1.2 8.5 1.3 8.5.1.1 2.9-.2 6.2-.7 3.3-.4 17.5-1.9 31.5-3.4 50.9-5.1 73.6-9.7 108.5-21.9 5.5-1.9 10.2-3.2 10.5-3 .5.6 9.8 110.3 9.9 117.1l.1 4.2-15.4 5c-32.3 10.5-77 17.8-129.1 21.1-8.8.6-20.2 1.3-25.2 1.6l-9.3.6v18.1l23.8-.6c50.5-1.2 103-9.6 144-22.9 6.8-2.2 12.6-3.8 12.8-3.5.3.2 2.9 30.1 5.9 66.3 3 36.2 5.7 68.2 6 71l.6 5.2-7.9 3c-37.5 14.3-90 22.9-163.4 26.7l-12.8.7V574h14.8c49.7 0 115.3-10.3 158.5-24.9 8.2-2.8 11.9-3.6 12.2-2.8.3 1.1 13.6 162 13.5 164.3 0 .6-1.5 1.4-3.2 1.8-1.8.4-8 2.9-13.8 5.6-17.7 8.3-81.3 26-116.8 32.4-31.9 5.8-45.7 7-76.7 6.2-14.8-.3-31-1.2-36-2-8-1.2-8.5-1.4-3.9-1.5l5.1-.1.7-54.8c.3-30.1.8-76.1 1.1-102.2.6-52.9.9-83.7 3-254.5 1.6-135.4 2.2-182.3 3.1-240.5l.6-41.6 14.2-2.2c23.7-3.8 47.6-9.1 145.1-32.3 21.2-5 20.1-5.1 20.9 1.3zm35.1 6.3c16.2 11.9 33.3 20.3 47.2 23.2 4.3.9 7.9 1.7 8.1 1.8.5.4 10.3 79.1 10 81.3-.3 2-1.7 1.1-12.8-7.8-6.9-5.5-12.7-10-13-10-.5 0-8.8 10.1-10.3 12.6-.5.8 5.7 6.3 19 17 10.9 8.6 20.1 16 20.5 16.3.4.3 3.2 20.6 6.2 45.1 3.1 24.5 5.7 45.7 5.9 47.1.3 2.9.7 3.1-27.9-19.8-5-4-9.3-7.3-9.6-7.3-1.2 0-10.8 13.2-10.3 14.1.4.5 12 10 25.8 21 13.9 11 25.3 20.4 25.5 20.9.2.4 3.8 28.7 8.1 62.9l7.7 62-3.5-2.6c-2-1.5-9-7-15.6-12.3-6.6-5.3-13.6-10.8-15.6-12.3l-3.7-2.8-5.1 6.5c-2.8 3.6-5.1 6.9-5.1 7.4 0 .4 11.5 10 25.6 21.2 14 11.2 25.7 20.7 25.9 21 .5.8 17.6 136.2 17.3 136.5-.2.1-8.4-6.3-18.3-14.2-9.9-7.9-19.2-15.3-20.6-16.4l-2.7-1.9-5.6 6.9-5.6 6.9 27.8 22.2c15.2 12.2 28 23.1 28.4 24.3.8 2.3 17.8 137.9 17.8 141.8 0 1.9-.4 2-3.3 1.5-11.7-2.2-96.4-30.4-97.7-32.6-.3-.5-2.1-18.6-3.8-40.2-1.8-21.6-6.6-79.8-10.7-129.3-6.4-77.4-13.3-162.5-30-370-1.9-23.7-5.3-65.5-7.4-93-2.2-27.5-4.3-52.4-4.7-55.4l-.6-5.3 4.9 3.3c2.6 1.8 8 5.6 11.8 8.4zm-572 1.5c15.8 11.8 30.3 20.6 38 23.1 2.2.7 4.4 1.6 4.9 2 .9.8-7.5 72.9-8.5 72.9-.3 0-5.4-3.8-11.3-8.5S435.5 115 435 115c-1 0-11 12-11 13.1 0 .4 7.2 6.4 15.9 13.4 15.3 12.2 15.9 12.9 15.5 15.9-.2 1.7-2.9 24-6 49.6-3 25.6-5.6 46.9-5.7 47.3-.1.5-7.1-4.6-15.4-11.2L413.1 231l-5.7 7.1c-3.2 4-5.3 7.4-4.8 7.8.5.5 9 7.2 18.9 15.1 9.9 7.8 18.4 14.6 18.8 15 .6.5-11.5 107-14.5 128.3-.2 1.3-3.8-1.1-14.8-9.8-8-6.3-14.8-11.5-15.2-11.5-1 0-10.8 12.1-10.7 13.3 0 .7 7.1 6.7 15.7 13.5s17.2 13.5 19 15l3.2 2.7-2.9 24c-1.7 13.2-5.5 45.4-8.7 71.5-3.1 26.1-5.8 47.7-6 47.9-.2.2-10.2-7.6-22.4-17.3-12.1-9.7-22.5-17.6-23-17.6-.4 0-3.2 3-6.1 6.6l-5.3 6.7 3.7 3.1c2 1.7 14.3 11.4 27.2 21.6l23.5 18.5-.5 4.5c-.3 2.5-2.5 21.4-5 42s-6.6 54.3-9 74.9c-2.5 20.6-4.7 37.6-4.9 37.9-1.6 1.5-33.5-7.2-49.4-13.4-11.2-4.4-38.9-17.9-42.4-20.6-1.9-1.5-7 29.9 66.4-411.6C385 144.8 405.9 22 406.5 22c.5 0 8.2 5.4 17 12zm825-9.8c1.8 7.8 13.5 67.6 13.5 69.3 0 1.8-1.9 2.9-11.7 6.8-15.7 6.2-21.2 8.1-37.8 12.7-24.1 6.7-59.3 13.7-87 17.1-5.5.7-10.3 1.5-10.8 1.9-.4.3-.2 4.3.5 8.8.9 6.7 1.4 8.2 2.9 8.2 4.4 0 37.9-4.3 50.9-6.6 26.7-4.6 56.7-13.2 85.7-24.5 5.8-2.3 10.8-3.7 11.3-3.3.8.9 21.4 103.4 20.8 103.9-1.2.8-16.1 6.3-24.7 9.1-23 7.4-50.2 12.4-97.5 17.9-16.5 1.9-31.6 3.7-33.5 4.1l-3.3.5.7 6.7c1 10.5 1.4 11.4 4.1 10.8 1.2-.3 13.4-1.7 27.1-3.1 35.4-3.6 53.5-6.1 72.2-10.1 15.2-3.3 44.5-12.1 54.6-16.4l4.3-1.8 12.4 62.6 12.5 62.7-5 2.3c-2.7 1.2-10.3 4.1-16.9 6.3-32.1 10.7-61.5 15.8-118.8 20.4-10.7.9-19.5 1.7-19.7 1.8-.1.2 0 4.2.4 9.1l.6 8.7 10.1-.6c62.4-3.9 107.9-12.2 145.9-26.8 4.9-1.9 6.9-2.3 7.2-1.4.2.7 6.8 33.4 14.5 72.7 7.8 39.3 14.4 72.5 14.7 73.7.6 2.6-.9 3.4-20.3 9.8-22.6 7.5-53.3 13.5-88.9 17.5-20.4 2.2-57.6 5-67.7 5h-6.8v18h16.8c50 0 114.1-10.3 157.8-25.4 5.4-1.8 10.6-3.7 11.5-4 1.4-.6 3.7 9.6 17.3 78.4 8.6 43.5 15.4 79.5 15.1 80-.4.6-1.2 1-1.9 1s-5.1 2.3-9.7 5.1c-34.6 21.1-75.3 36.5-112.4 42.8-25.3 4.3-43.5 4.8-66.5 2-12.2-1.4-34.7-5.1-35.9-5.8-.9-.6-25.5-194.6-52.6-415.6-5.8-47.3-15.8-129.2-22.3-182l-11.8-96 5.5-.7c33.9-4.5 49.6-7.8 116.6-23.9 31.9-7.7 49.8-11.7 53.2-11.8 1.6-.1 2.4.6 2.8 2.1zm-577 9c-.3 5.1-1 22.6-1.6 38.8-.5 16.2-1.3 29.8-1.7 30.2-1.1 1.1-22.7 9.2-36.2 13.6-26.1 8.4-58.8 15.4-98.2 20.8-10.4 1.4-12.8 2-12.8 3.3.1 2.5 2 15.4 2.4 15.8.7.7 36.6-3.7 51.1-6.3 27.4-4.7 45.6-9.7 76.3-20.8 16.1-5.9 17.2-6.1 17.2-4.2 0 1.2-.7 22.6-1.6 47.6-1.4 37.7-1.9 45.7-3.1 46.7-2.8 2.2-25.7 10-40.1 13.7-19.2 5-41.9 8.7-83.2 13.6-19 2.3-34.6 4.3-34.7 4.3 0 .1.4 4.2 1 9.1l1 8.8 4.5-.6c2.5-.3 17.8-2 34.1-3.6 47.5-4.8 72.2-9.7 102.7-20.1 8.1-2.7 14.8-4.8 15-4.6.5.4-4.1 120.5-4.6 121-1.2 1.2-27.8 10.2-38.9 13.3-25.5 7-51.3 10.9-94.1 14.5-14.6 1.2-26.7 2.3-26.8 2.5-.2.1-.1 4.2.3 9l.8 8.7 13.1-.7c51-2.6 98.8-10.9 134.3-23.4l11.1-3.9-.5 10.1c-.2 5.6-1.5 38.8-2.8 74-1.3 35.1-2.7 64.2-3.2 64.6-1.5 1.4-16.6 6.8-28.9 10.3-35.8 10.4-90.4 17.7-148.9 20l-6 .2v18l20-.2c50.9-.6 110.1-10.2 153.3-24.7l10.2-3.5v4.2c.1 2.3-1.2 38.5-2.7 80.4l-2.7 76.2-6.1 1.5c-3.4.8-15.1 5.3-26.1 10-24.7 10.4-33.9 13.7-49.6 17.5-29.4 7.2-69.1 11.9-127.8 15.2-17.2.9-35 .6-35-.6 0-.2 2.5-20.9 5.5-46.2 10.4-86.4 12.6-103.9 20-165.8 4.1-34.1 14.4-120.1 23-191 8.5-71 17-141 18.7-155.8 2-16.6 3.6-26.7 4.3-26.7.7 0 1.2-4 1.3-11.3.2-6.1 2.5-29.6 5.3-52.1 2.7-22.5 4.9-41.2 4.9-41.6 0-.4 4.6-1 10.3-1.3 17.6-1.1 53.8-7.7 97.7-17.8 22.5-5.2 64.3-15.8 72-18.3 7.5-2.4 7.2-2.7 6.5 7.6zm600.8-7.5c1.8.9 10 6.2 18.2 11.8 17 11.6 23.4 15.4 34.2 20.1l7.6 3.3 16.4 61.8c9 34 19.9 75.3 24.3 91.8 4.3 16.5 17.2 65.1 28.5 108 32.5 122.9 39.1 147.8 48.5 183.5 17.1 64.5 51.2 193.7 56.7 214.8 3.1 11.7 5.3 21.5 5 21.8-1.2 1.3-23.9-6-47.9-15.5-28.9-11.3-38.5-14.6-51.8-17.5l-9.4-2.1-16.3-81.5c-8.9-44.8-16.3-82.3-16.3-83.3 0-1.2 7.2 4.1 22.6 16.4 12.4 9.9 22.7 17.9 22.8 17.7.1-.1 2-2.6 4.2-5.3 2.2-2.8 4.5-5.8 5.2-6.7 1.2-1.5-2.2-4.5-29.5-26.3-16.9-13.6-31.1-25.6-31.5-26.8-.9-2.6-27.8-139.2-27.8-140.9 0-.6 1.2 0 2.8 1.3 4.8 4.5 30 23.9 30.9 23.9.8-.1 10.3-12.2 10.3-13.3 0-.3-11.2-9.4-24.9-20.2l-24.9-19.7-1.2-6.1c-4.6-24.4-20.2-103.5-20.5-104.5-.7-1.8.4-1.1 13.3 9.1 6.3 4.9 11.5 8.7 11.7 8.5 3-3 10.4-13.2 10-13.8-.3-.4-8.9-7.4-19.2-15.6-10.4-8.1-19.4-15.2-20.1-15.9-1-.9-18.6-86.4-17.9-87.1.1-.2 4.5 3.1 9.7 7.1 5.2 4.1 9.8 7.5 10.3 7.5.6 0 9.9-11.3 10.5-12.9.1-.4-8-7.2-18-15.2l-18.3-14.5-5.8-29.9c-3.2-16.5-6.1-31.2-6.4-32.8-.6-3.2-.3-3.3 4-1zm132 700.4c14 2.9 25.1 6.5 52.6 17.4 26.5 10.4 36.5 13.8 49.6 16.4l9 1.8.6 5.6c.4 3.1 1 13.6 1.4 23.2l.7 17.6-3.9-.6c-7.1-1.3-26.7-8.4-48.3-17.6-25.3-10.7-43.3-16.9-58.4-20-13.5-2.7-18.8-2.2-27.6 2.6-46.9 25.5-83.6 38.1-127 43.7-15 1.9-41.1 1.4-58-1.1-40.1-6.1-68.2-14.2-132-38.1-32.4-12.1-32.5-12.2-40-11.8-6.4.3-9.1 1.1-19 5.5-23.6 10.5-97.4 26.5-146.5 31.8-20.1 2.1-40.4 3.5-52.1 3.5-31.3 0-64.4-7.8-102.4-24-19.2-8.2-22.8-9.6-34-12.7-8.5-2.4-11.2-2.7-26.5-2.7-19.6-.1-17.6-.6-48.8 11-12.5 4.6-29.2 10.2-37 12.5-33.8 9.5-75.9 15.8-118.2 17.5-46.8 1.9-90.3-11-142.5-42.6-8.7-5.2-14.2-7.9-15.5-7.7-1.1.3-9.9 3.7-19.5 7.7-58.1 23.8-119.2 38.6-178 43.1-13.9 1-61.4.9-62.4-.2-.1-.2.5-8.1 1.5-17.4 1-9.4 1.8-17.5 1.8-18 .1-.7 15.6-1 44.3-1 45.4 0 54.7-.5 84.8-4.6 39.8-5.5 77.9-15.4 113.2-29.5l13.6-5.5 11 6.1c44.8 24.8 91.3 36.5 137.7 34.6 51.6-2.1 102.1-7.5 132.5-14.3 21.8-4.8 31-8 72.3-25.2 15.3-6.3 15.5-6.3 26.7.7 33.1 20.6 64.5 32.1 105 38.4 12.9 2 18.3 2.2 49 2.2 32.7 0 35.5-.1 52.5-2.7 41.3-6.3 120.4-27.1 139.3-36.6 14.9-7.5 12.2-7.6 42.3 2.9 57.4 20.1 84.7 28.1 114.4 33.4 31 5.5 52.3 7.1 72.5 5.6 46.7-3.6 96.1-19.5 140.5-45.4 7.5-4.3 14.2-7.5 15.8-7.6 1.6 0 7.4.9 13 2.1z"/></svg>