<svg version="1" xmlns="http://www.w3.org/2000/svg" width="1620" height="1478.667" viewBox="0 0 1215.000000 1109.000000"><path d="M8.7.8L0 1.1l.2 472.2.3 472.2 13.8.2c8.9.1 13.7-.2 13.7-.9 0-2.8 19.3 2.8 32.5 9.5 19.4 9.7 33.4 20.8 69 54.6 39.4 37.5 53.6 49.4 75.1 62.7 62 38.4 136.2 40.1 198.9 4.7 22.9-13 39.4-25.4 80-60.2 41.5-35.7 58.1-47.6 79.9-57.4 30.3-13.6 61.2-14.6 90.3-3.1 28.4 11.2 48.6 25.5 105.8 74.5 13.2 11.3 29.6 24.9 36.5 30.3 33 25.8 60.4 40.1 88.5 46.2 12 2.6 34.9 2.4 48.2-.4 21.5-4.6 43-14.2 65.5-29.1 20.1-13.4 30.6-22.1 73.3-60.5 42.2-38.1 62.5-53.1 85-62.9 15.4-6.7 21.6-7.9 40.8-7.7l16.7.1V2.3l-12.2-.6c-32.3-1.8-45.2.5-68 11.9-22.5 11.3-40.1 25.8-86.3 71.4-47.2 46.4-61.9 58.5-86 70.5-16.4 8.2-28 11.4-43.6 12.2-19.9 1-39.2-3.4-61.4-14.1-24-11.5-40.9-23.6-91-65.4-45-37.6-65.4-52.4-88.8-64.3-27.1-13.8-46.9-19-72.2-19-22.4 0-41.3 4.6-64 15.5-25.5 12.2-47.1 27.8-92.1 66.3-49.4 42.3-64.5 53.4-89.2 65.7-41.9 21-81.4 19-119.7-5.8-14.6-9.6-28.7-21.8-59-51.6-16.5-16.2-34.5-33.4-40-38.1C105.9 27.1 74.4 10.4 39.6 3.6 25.7.8 20.9.4 8.7.8zm1178.1 431.4l.2 413.7-5.7 1.1c-30.3 6.1-54.8 16.1-79.4 32.5-17.2 11.6-30.3 22.9-60.4 52.5-31.1 30.6-41 39.5-54.1 48.8-16.2 11.6-39.1 21.4-56 24.1-3 .4-5.6.6-5.9.3-.3-.3-.5-184.9-.5-410.2V185.4l7.7-1.2c15.9-2.5 36.2-10.9 53.3-22 20.2-13.1 33-24.3 74-64.7 47.4-46.7 62.8-59.2 86.2-69.9 12.3-5.7 29.5-9.8 38.3-9.2 2 .1 2 .9 2.3 413.8zM44.8 23.6c12.6 3.3 25.5 8.3 38.1 15 23.3 12.3 41.6 27.2 81.4 66.2 38.7 38 50.2 47.8 69.9 59.9 16.4 10.1 36.3 17.4 51.6 18.9l6.2.7v409.3c0 225.2-.3 409.4-.7 409.4-.5 0-4.4-.9-8.9-2-22-5.2-43.7-17.4-67.4-37.6-6.3-5.4-26.6-24.7-45-42.9s-37.8-36.5-43.1-40.7c-30.8-24.7-57.5-35.6-87.9-36.1l-11-.2V19.9l3.8.7c2 .4 7.9 1.7 13 3zm583.5 1.5c25.7 5.2 52.2 19 85.5 44.4 7.6 5.7 26.8 21.2 42.7 34.5 45.1 37.7 64.8 51.8 89.3 64.2 17.9 9.1 42.5 16.8 53.5 16.8 1.8 0 4.1.6 5 1.2 1.6 1.2 1.7 26.7 1.5 410.8l-.3 409.5-6-.3c-24.2-1.3-48.9-13-75-35.5-6-5.2-22-20.1-35.5-33.2-13.5-13.1-30.1-28.5-37-34.2-46.2-38.7-94.6-56.1-150-54-55.6 2.2-97.9 20.3-145.5 62.1-4.9 4.3-19.1 17.4-31.5 29.1-25.9 24.5-36 33.2-48.1 41.5-19.1 13.1-42.7 21.9-58.6 22H313V594.6c0-389.1.1-409.5 1.8-410 .9-.2 4.4-.7 7.6-1.1 13.5-1.5 34.3-8.9 51.5-18.1 22-11.9 40.1-25.4 81.7-61.1 55.8-47.9 77.2-62.7 106.5-73.6 20.9-7.9 45.2-9.9 66.2-5.6zM57.5 863.9c14.8 3 30.2 9.9 44.5 19.9 14.4 10.1 29 23.2 60 53.8 46.6 46.1 59.1 56.3 84.9 69.5 34.3 17.4 74.2 20.1 107.5 7.3 15.7-6.1 30.6-14.9 46.6-27.8 9.3-7.4 13.9-11.6 36-32.6 31.8-30.3 45-41.5 62.5-53.3 40-26.9 85.7-37.8 134-32.2 30.6 3.6 56.6 13.1 82.5 30.2 19.3 12.8 30.9 22.9 71.5 62.3 34 33 54.9 47.7 80.6 56.8 32.1 11.3 70.4 8.5 104.7-7.8 22.8-10.9 38-23 77.2-61.5 16.2-16 34.2-33 40-37.9 18.8-15.8 39.5-28.3 60.5-36.6 6.9-2.7 32.7-10 35.6-10 .6 0 .8 11.7.7 31.7l-.3 31.8-6 .7c-20.5 2.6-47 15-72.2 34-14.4 10.8-24.1 19.1-53.8 45.8-47.7 42.9-67.2 57.5-93.8 70-19.1 9-33.9 12.4-53.2 12.4-15.1 0-20.8-.9-35-5.6-27.3-9.2-52.6-26.4-106-72.3-46.9-40.4-65.7-54.2-91.4-67-22.3-11.2-40.7-15.8-62.6-15.7-22.3 0-39.7 4.3-62.1 15.2-22.2 10.8-37.9 22.4-83.4 61.4-14 12-31.9 26.6-39.6 32.5-36.9 27.7-69.5 41.3-105.5 44-41.3 3.1-78.5-7.1-115-31.5-18.2-12.1-30-22.4-73.3-63.6-40.1-38.2-62.5-52.4-95.2-60.8l-4.1-1-.6-6.7c-.4-3.8-.7-18.2-.7-32.1V862h7.8c4.2 0 11.8.9 16.7 1.9z"/></svg>