<svg version="1" xmlns="http://www.w3.org/2000/svg" width="1604" height="1429.333" viewBox="0 0 1203.000000 1072.000000"><path d="M705 13.5V27H599.8c-117.4 0-113.3-.2-134.9 7-61.4 20.4-116.7 82.9-135.2 153l-3 11.5-.8 84.5c-.5 46.5-1 98.2-1.1 115l-.3 30.5-7.5.5c-4.6.4-21.5 4.2-44 10-20.1 5.1-36.7 9.5-36.9 9.7-.6.5 3.1 16.3 4 16.9.4.2 19.4-4.3 42.2-10.1 22.7-5.8 41.6-10.5 42-10.5.4 0 .7.7.7 1.5 0 1.2 1.5 1.5 7.6 1.5h7.6l-.6 5.7c-.3 3.2-2.7 38-5.2 77.3s-6.5 100.5-8.8 136l-4.2 64.5H312c-8.8 0-10.1-.3-16.4-3.4-8.3-4.1-17.3-12.4-34.1-31.6-18.5-21.1-26.5-27.9-38.4-32.7-5.5-2.3-6.5-2.3-50.1-2.6-24.5-.2-73.4-.1-108.8.3l-64.2.7v18.1l107.2-.4 107.3-.4 5.2 2.7c6.6 3.5 15.8 12.1 28.1 26.2 13.8 16 18.8 21.1 27 27.7 12.3 9.9 23.1 13.9 37.7 13.9h7.5v2.7c0 1.6-.9 15.4-1.9 30.8-1.1 15.4-1.7 28.2-1.4 28.5.2.3 4.2.7 8.8.9 8.2.3 8.4.2 8.9-2 .2-1.3 3.2-45.6 6.6-98.4 3.4-52.8 8.6-133.1 11.6-178.5 3-45.4 5.4-83.2 5.4-84.1 0-1.5 6.9-1.7 78.5-2.4 43.2-.4 78.8-.5 79.1-.2.8.7.5-2.7 15.9 197.7 7.5 96.5 13.7 175.6 13.9 175.8.2.2 4.3 0 9-.4 7-.5 8.6-1 8.6-2.3 0-.9-1.1-15.8-2.5-33.1s-2.5-33.1-2.5-35.1v-3.6l123.8-.7c129.3-.7 142-.4 165.2 3.5 36.9 6.2 60.5 18.9 69.5 37.3 4.5 9.2 6.1 19.2 4.5 28.3-2.3 13.3-8.5 21.6-27.5 36.8-23.6 18.9-29.6 27.1-29.7 41-.2 35 42.4 63.2 126.2 83.4 30.8 7.5 73.1 14.4 107.9 17.6 17 1.5 57.6 2.1 58.4.7.3-.4.2-4.4-.1-9l-.5-8.2h-21.6c-65.1 0-156.4-17.7-206.4-40-27.3-12.2-41.6-24.7-45.6-39.8-2.5-9.4 1-14.4 21.5-30.8 7.9-6.3 16.8-14.3 19.8-17.7 6.5-7.2 11.9-16.9 14.1-25.3 2-7.6 2-24 0-31.9-7.4-29-33.8-48.9-76.6-58-29.3-6.2-25.5-6-171.6-5.7-73.3.2-133.3.1-133.3-.2 0-.2-4.7-62-10.5-137.1-5.8-75.2-10.5-138.2-10.5-140.1 0-3.4 0-3.4 4.7-3.4 2.5 0 11.6 1.9 20.2 4.1 29.2 7.7 33.5 8.8 33.8 8.6.6-.6 4.6-16.7 4.2-17.1-.2-.1-10.3-2.9-22.4-6-12.1-3.2-23.5-6.2-25.3-6.8l-3.3-1 .3-65.1.3-65.2 2.6-6.3c4.5-10.5 9-17.1 17.9-26.2 9.2-9.4 16.3-14.6 27.8-20.4 12.6-6.4 15.4-6.7 59.4-6.5 21.6.1 41.7.4 44.6.6l5.2.5V258h18v-18h293v19.1l8.8-.3 8.7-.3.3-9.3.3-9.2h167.8v-8.5l-.1-8.5-41.1-.2c-22.7 0-42.3-.2-43.7-.3-1.4-.2-20.6-.3-42.7-.4l-40.3-.1V44h169V25.7l-84.5.7-84.4.6-.3-12.7-.3-12.8h-17L1016 14l-.5 12.5-146.2.3L723 27V0h-18v13.5zm310.8 119.8l.2 88.7H723V45l74.8-.2c41.1-.2 106.9-.3 146.2-.3h71.5l.3 88.8zm-310.8-.4v88l-48.7.4c-46.2.3-49.1.4-54.8 2.4-23.6 8.1-45.8 25-59.4 45.2-3.2 4.9-6.9 11.5-8.1 14.7-5.1 13.7-5 12.6-5 80.6 0 35-.3 63.9-.7 64.1-.9.6-137.6 1-165.3.5l-19.5-.3.3-111c.4-103.9.5-111.6 2.3-120.3 12.3-61.2 64.3-123.8 120-144.5 21-7.9 15.6-7.5 133.7-7.6L705 45v87.9z"/><path d="M556 471.1c-3.1 4-4.9 7.4-4.4 7.9 3.1 3 21.8 15.9 22.4 15.5 2-1.3 10.1-13.8 9.4-14.4-.9-.8-13.7-10.1-19.1-13.9l-3.1-2.2-5.2 7.1zM387.8 562.7c-3.6 51.1-6.4 93-6.2 93.2.3.3 4.3.7 8.9 1l8.5.6.5-3c.2-1.6 3.2-42.6 6.5-91s6.2-89.2 6.5-90.8l.5-2.7h-18.6l-6.6 92.7zM668 482c0 .5.7 1 1.5 1s1.5-.5 1.5-1c0-.6-.7-1-1.5-1s-1.5.4-1.5 1zM235.1 511.5c-14 10.1-25.8 18.8-26.3 19.3-1.4 1.4 9 15.5 10.6 14.4.6-.5 12.5-9.1 26.4-19.1 18.5-13.4 25.2-18.8 24.7-19.9-.7-1.9-8.8-13.1-9.5-13.1-.3-.1-11.9 8.2-25.9 18.4zM589.5 555.1c-3 4.2-4.5 7.3-3.9 7.7.6.4 5.5 4 11 7.9 5.4 4 10.4 7.2 10.9 7.2 1.4-.2 10.5-13.1 9.9-14-.7-1.2-21.3-15.9-22.2-15.9-.5 0-3.1 3.2-5.7 7.1zM280.7 585.2c-7.2 11.5-20.2 38.3-19.3 39.7.6.9 15.6 7.5 16 7 .2-.2 4.8-9.5 10.3-20.6l9.9-20.1-7.7-4.1-7.8-4.2-1.4 2.3zM459 685.5V759h18V612h-18v73.5zM635.4 852.1c-45 46-127.1 70.3-219.2 65-75.5-4.4-126.7-23.6-169.1-63.7l-7.1-6.6-6.5 5.8-6.6 5.7 7.3 7.5c27.2 27.6 65.3 48.3 108.8 59.2 55.8 13.9 126.3 14.5 185.6 1.5 39-8.6 77.4-25.8 101.9-45.8 9.3-7.6 21.6-18.9 22.6-20.9 1.2-2.3.2-3.7-7.2-9.9l-4.6-3.8-5.9 6zM142.3 895.8c-5 6.4-5.2 6.8-3.4 8.2 73.3 58.3 114.4 78.7 171.6 85.4 23.6 2.8 54.9 4.5 108.1 6.2l21.1.6.6-3.9c.4-2.1.7-6.1.7-8.9v-5.2l-15.2-.6c-8.4-.3-28.3-1-44.3-1.6-57.1-2.1-89.1-5.9-110.9-13.2-34.9-11.6-65.2-29.8-116.3-69.7-2.8-2.3-5.5-4.1-6-4.1-.4.1-3.2 3.1-6 6.8zM785.5 949.6c-16.5 25.6-39.9 50.7-58.9 63.3-19.4 12.9-40.3 21.7-66.9 28.1-34.6 8.4-66.2 12-104.7 12.1-26 0-39.1-.8-60.8-3.7-6.7-1-12.5-1.5-12.7-1.2-.3.3-1.2 4-2 8.3-1.1 5.8-1.2 8-.4 8.6 1.3.8 20.7 3.4 37.4 5 17.8 1.7 61.9 1.4 81-.5 63.1-6.5 105.4-19.1 138.6-41.5 24.6-16.5 48.9-43.2 67.7-74.2l2.2-3.6-7.5-4.6-7.5-4.7-5.5 8.6z"/></svg>