<svg version="1" xmlns="http://www.w3.org/2000/svg" width="945.333" height="926.667" viewBox="0 0 709.000000 695.000000"><path d="M56.1 77.5c-11.7 42.7-21.1 77.8-20.9 78.1.3.2 17.3 5 37.9 10.6 20.6 5.6 37.6 10.4 37.9 10.6.3.3 0 .6-.6.9-4.1 1.5-14.7 8.8-21 14.6-13.4 12.4-22.6 27-26 41.3-2.1 9-1.5 35.6 1.1 45.4 3.8 14.1 10 24.5 18 30 3.7 2.5 16.2 6.9 31.4 11l4.3 1.1-6 2.9C85 336.8 62 365.7 57.9 392.2c-1.3 8.4-.7 31.4 1.1 39.8 4.4 20.7 13.9 36.3 25.3 41.5 1.8.8 24.1 7.6 49.7 15 44 12.8 76.9 22.4 115.5 33.7 9.4 2.7 20.7 6 25.3 7.4l8.2 2.5v119.8l-3.7.6c-10.9 1.6-17.8 4.6-34.6 14.8-6.4 3.9-13.2 7.2-17.1 8.2-9.6 2.6-15.2 1.2-37.6-9.5-23.1-11-30.7-13.4-42-13.4-11 .1-20.2 3.1-37 12.4-28.5 15.6-32.1 15.6-64.8-.6-10.6-5.2-21.2-10.2-23.5-11-5.9-2.1-13-2-17.5.3-3.6 2-3.7 2.1-4 8.5l-.3 6.6 7.3.3c6.9.4 8.3.9 27.8 10.6 26.2 13 31.6 14.8 44 14.8 11.3 0 16.9-1.6 30.3-8.7 25-13.2 27.6-14.3 36.2-14.6 10-.5 15.4 1.2 34.6 10.9 34.5 17.2 46.6 17 76.1-1.2 12.2-7.6 18.7-10.1 25.8-10.1 8.1 0 12.6 1.5 32 10.7 24.5 11.6 26 12 41 12 14.5 0 17-.8 37.9-12.1 27.1-14.6 32.1-14.5 62.6 1.1 28.8 14.7 43.1 14.5 72.2-1.1 27.4-14.6 32.6-14.6 62.1.1 37.4 18.5 43.3 18.2 85.4-4.1 9.3-4.9 20.6-8.4 27.6-8.4h4.2v-16l-5.2-.1c-15.2-.4-19.8.9-42.3 12.6-29 15-31.6 15-62 0-20.8-10.3-27.4-12.5-38.1-12.7-11.5-.2-23.1 3.5-39.8 12.6-24.2 13.2-31.6 13.2-58.9-.3-8.9-4.4-18.4-8.7-21-9.6-11.3-3.6-23.3-3.6-34.3.1-2.7.9-12.8 5.7-22.5 10.6-16.2 8.3-18.1 9.1-24.7 9.6l-7.2.5V614c0-49.4.3-62.1 1.3-61.7 1.1.4 14.7 4.4 90.2 26.4 40.6 11.8 47.2 13.8 83.5 25.8 21.5 7.2 41.5 13.2 47 14.1 12.4 2.3 36.8 2.3 50.5 0 41.9-6.9 78.4-27.9 78.5-45.1 0-3.6-3-8.8-6.3-11-3.8-2.4-18-7-50.3-16-33.9-9.4-45.7-13.5-59.4-20.7-28.8-15-43.7-38.3-48.6-76.2-2.1-16.5-1.9-15.7-5.6-19.8-3.2-3.5-4.4-3.9-29.8-10.8-14.6-4-26.7-7.4-26.9-7.6-.6-.5-.9-.3 8.4-5.8 22.3-13.4 37-31.6 40.6-50.4 1.6-8.6.6-26.6-2.1-36.2-5-17.9-16.2-34.9-29.1-43.9-7.2-5.1-10.6-6.6-21.8-9.8l-6.5-1.8 6.7-3.3c10.8-5.3 21.5-13 29.7-21.2 8.3-8.4 12.9-15.5 16.8-25.8 2.3-6 2.6-8.1 2.6-20.7 0-11.6-.3-15.4-2.2-21.8-6.2-21.5-16.6-37.1-31.4-47-6.2-4.1-11.2-5.9-42.3-15-12.1-3.6-45.6-13.5-74.5-22C130.3 15.5 77.9 0 77.7 0c-.1 0-9.8 34.9-21.6 77.5zm48.1-50.8c10 2.9 12.7 4 12.4 5.3C114.4 39.8 87 148.9 87 149.8c0 .7-.3 1.2-.7 1.2-1.4-.1-28.4-7.7-28.8-8.2-.2-.2 6.8-26.5 15.6-58.3C91.5 17.8 90 23 90.7 23c.4 0 6.4 1.7 13.5 3.7zm63.4 18.7c30.5 9 150.4 44.4 254.7 75.1 27.7 8.2 50.9 15.6 53.8 17.2 21.7 11.7 34.7 51.2 24.2 73.4-6.1 13-23.5 27.9-41.4 35.5-4.4 1.9-8.7 3.4-9.6 3.4-.8 0-28.8-7.5-62.2-16.6-33.3-9.1-110.5-30.3-171.5-47s-111-30.5-111.2-30.7c-.2-.1 3.5-15.3 8.1-33.7 4.7-18.4 11.5-45.3 15.1-59.8 3.7-14.4 7-26.2 7.4-26.2.4 0 15.1 4.2 32.6 9.4zm50.3 168.7c48.2 13.2 102.9 28.3 121.6 33.4 18.7 5.2 57.2 15.7 85.5 23.5 30.2 8.3 53.2 15.1 55.6 16.5 6.4 3.7 15.8 14.5 19.8 22.7 5.6 11.3 7.9 22 7.4 34.3-.3 9.6-.6 10.8-4.2 17.9-6.7 13.2-23.2 26.9-41.9 34.7l-7.8 3.2-7.2-2c-4-1.1-56-16.3-115.7-33.8-59.7-17.4-137.4-40.2-172.8-50.5-71.6-20.9-67.8-19.3-72.7-30.1-5.3-12-7.3-36.2-3.9-48 3.3-11.3 13.1-25.2 23.6-33.5 7.4-5.8 19.3-11.9 24.2-12.3.5-.1 40.4 10.7 88.5 24zm17.5 150c56.1 15.4 123.3 33.9 149.1 41 114.1 31.3 133.9 36.9 134.6 38.1.5.7.9 2.8.9 4.7 0 5.7 4.8 27.6 8 36.2 6 16.5 14.4 29.5 26.6 40.8 16.8 15.8 38.2 25.5 82.9 37.6 26.4 7.2 44.5 12.7 44.5 13.6 0 3-19.5 13.5-34.3 18.4-17.5 5.8-29.1 7.8-47.2 7.9-21.3.1-26.6-1.1-66.4-14.5-17.9-6-60.9-19.3-95.6-29.4-34.6-10.1-81.4-23.8-104-30.4-79.3-23.2-210.2-61.4-226.3-66.1-14.5-4.2-16.7-5.1-20.2-8.5-7.3-7.2-11.5-20.4-12.6-40-.9-15.5.6-23.9 6.1-35 9.6-19.2 25.5-33.6 44.8-40.6 2.9-1 5.6-1.8 6.1-1.9.4 0 46.8 12.6 103 28.1zm87.1 179.4l11 3.2.3 61.6c.1 34 0 61.7-.4 61.7-.3 0-6-2.6-12.7-5.9-6.7-3.2-13.9-6.4-15.9-7.2l-3.8-1.3V537.1l5.3 1.6c2.8.8 10.2 3 16.2 4.8z"/><path d="M176.8 78.5c-9.6 5.4-5.6 19.5 5.5 19.5 9.4-.1 14.1-10.2 8-17-3.4-3.8-9.3-4.9-13.5-2.5zM241.5 97.3c-3.9 10.5-5.3 15.8-4.2 16.3 2 .7 54.8 17.4 55.2 17.4.9 0 5.5-16.4 4.8-17-.4-.4-11.1-4-23.8-8-33.7-10.7-31.5-10.1-32-8.7zM152.8 222.7c-5.9 3.7-6.5 10.8-1.3 16 3.3 3.3 3.9 3.5 8 3 5.3-.5 7.3-2 9.2-6.6 4-9.4-6.9-17.9-15.9-12.4zM213.8 248.5l-2.5 8.4 6.1 2c10.5 3.4 97.9 31.3 102.4 32.6 3.3 1 4.4 1.1 4.7.2 3.4-10.9 4.8-15.7 4.4-16-.5-.5-111.1-35.7-112-35.7-.3 0-1.7 3.8-3.1 8.5zM153.3 378.5c-3.2 3.2-3.5 4-3 7.6 1.4 10.4 14.4 13.3 19.8 4.5 2.9-4.7 2.4-8.3-1.5-12.2-2.8-2.8-4.2-3.4-7.6-3.4-3.5 0-4.8.6-7.7 3.5zM220.5 393.3c-3.5 11-4.8 15.7-4.4 16.1.6.6 166.5 52.6 167.8 52.6.9 0 6.5-16 5.8-16.6-.1-.1-23.4-7.5-51.7-16.4-95.7-30.1-105.5-33.2-111.3-35-4.2-1.3-5.9-1.5-6.2-.7z"/></svg>