<svg version="1" xmlns="http://www.w3.org/2000/svg" width="1677.333" height="1846.667" viewBox="0 0 1258.000000 1385.000000"><path d="M599.5 13.4c-32 15-62.2 29.6-104 50.1-87.4 42.9-118.8 57.9-159.5 76.2-119.7 53.9-213.4 84-314 100.9C10.7 242.4 1.1 244 .6 244S0 318.2.4 415.2C1.1 623.6 1.8 691.9 3.1 707c9.3 108.4 67.2 232.8 165.6 356.4 29.8 37.3 55.1 65.5 92.3 102.6 96.7 96.7 198.3 168.3 285.9 201.6 32 12.2 65.3 18.6 88.1 16.9 37.8-2.7 81.7-18.7 134.2-48.8 69.2-39.7 139.4-95.2 211.3-167.2 36.6-36.5 64.5-67.6 94.7-105.2 92.2-115 152.9-232.3 173.7-336 7.6-37.7 9.4-60.8 8.6-112.8-.6-45.2-1.3-135.4-2-259-.5-83.4-.9-108.2-1.8-109.2-.2-.1-4.1-1-8.8-1.8-135.5-25.1-260.8-66.8-411.9-137.2-52.3-24.4-129.2-64-188.2-96.9-9.2-5.2-17.4-9.4-18.1-9.3-.6 0-12.9 5.5-27.2 12.3zm44.2 17C755.5 92.2 853.5 139.2 948 176.5c91.1 35.9 179.1 62.5 263.1 79.6l25.6 5.2.7 78.6c.3 43.2 1.1 131.8 1.7 196.8 1 121 .8 132.9-2.7 158.8-15 110.5-79.6 240.1-182.1 365.4-97.7 119.3-221.3 224.5-322.8 274.6-48.5 23.9-85 33.5-116.5 30.5-53.9-5.1-129-40.5-208.4-98.3-88.9-64.8-178-153.2-245.4-243.8C77.1 910.8 29.2 801 21.1 703c-1-12.3-3.7-441.8-2.7-442.7.2-.3 8.9-2 19.3-3.9 92.3-16.9 178.5-44.3 282.8-89.9 43.2-18.9 84.4-38.4 183-86.7 62.6-30.7 120.6-58.5 122.6-58.7.3-.1 8.3 4.1 17.6 9.3z"/><path d="M615.5 116.5c-26.2 12.3-58.5 28-108 52.5-93.4 46.3-123.2 60.3-166.5 78.8-77.7 33-157.1 56.7-223.8 66.8l-12.3 1.9.6 166c.6 184.8 1 213.4 3.1 231.5 7.3 63 31.3 128 73.3 199 22 37.2 53.6 81.2 84.7 118.1 25.6 30.4 69.4 75.5 96.9 100 88.9 79.2 173.7 129.3 237 140.1 9.9 1.7 14.7 1.9 27.5 1.5 20-.7 35-4 58-12.9 121.4-47 286.5-201.9 377.2-353.8 49.2-82.5 76-156.8 81.8-227.5 1.1-12.8-.2-275.1-1.6-335.2l-.6-25.1-9.7-1.7c-15-2.6-49.8-10.2-69.2-15.1-78.4-19.6-163-50.3-252.9-91.7-43.8-20.2-124.4-61.9-172.5-89.2-7.2-4.1-13.7-7.5-14.5-7.4-.8 0-4.6 1.5-8.5 3.4zm20.9 23.4C809 238 971.8 303.1 1114.6 331.1l11.2 2.1.8 107.7c.5 59.2.8 137.5.9 174.1 0 58.7-.2 67.9-1.8 78.5-7.3 49.4-21.7 94.6-46.2 145.3-48.3 99.6-131.1 205.4-228 290.9-76.7 67.7-155.6 114.6-208.4 123.8-9.7 1.7-27.8 1.9-37.1.4-96.3-15.3-250.4-133.6-356.9-273.9-72.3-95.2-115-190.2-123.1-273.6-.5-5.6-1.2-54.4-1.5-108.5-.3-54.1-.7-136-1-182l-.5-83.7 9.7-1.7C222.9 314.8 317.1 282 430.5 227c11.6-5.6 26-12.6 32-15.5 6.1-2.9 32.2-15.8 58-28.7 61.1-30.4 100.8-49.6 102.9-49.7.5-.1 6.3 3 13 6.8z"/><path d="M609.5 277.6c-2.2.2-8.6 1.1-14.3 2-68.9 10.4-126.4 58.2-147.6 122.7-10.2 31.2-11.3 66.4-3 98.3C458 552.4 496 596.8 546 619.1l10.5 4.7-.3 172.4c-.2 112.3 0 174.4.7 178.5 1.4 9.1 5.5 16.6 13.2 24.8 13.9 14.6 35.6 25.9 57.6 30.1 10.4 1.9 29.1 1.4 38.8-1.1 19.6-5.1 35.4-19.1 45.1-40 6.7-14.6 12.5-37.2 14-55.3l.7-8.2H699v-51.9l13.8-.3 13.7-.3.3-34.3.2-34.2h-13.7c-7.6 0-14.3-.4-15-.8-.9-.6-1.1-6.9-.6-26.5l.6-25.7H729v-95h-35v-32.9l5.3-2.3c56.4-23.8 97.8-75.5 108.1-134.8 7.7-44.3-2-88.5-28.2-128-9.4-14.2-30.8-36.1-45.2-46.2-23-16.2-51.3-27.6-80-32.3-9.4-1.5-36.9-2.7-44.5-1.9zm30.6 18.4c22.7 2.2 41.3 7.6 61.4 17.6 17 8.4 29.5 17.4 43.1 30.9 23.2 23.1 38.2 50.9 44.6 82.8 2.9 14.5 3.2 42.1.5 56.5-5.6 30.1-21.7 61.3-43 83-17.6 17.9-33 27.9-64 41.5-6.3 2.8-6.7 5-6.7 33.4 0 13.6.3 26.5.6 28.5l.7 3.8H711v59h-31v16.2c0 9-.3 28.8-.7 44l-.6 27.8h5.4c3 0 9.8.3 15.2.7l9.7.6-.2 16.1-.3 16.1h-27l-.3 44.3-.2 44.2h12.5c9.3 0 12.5.3 12.5 1.2 0 .7-1.1 6-2.4 11.8-5.7 25.3-15.8 42.2-29.8 50.3-10.4 6.1-28.9 8.3-43.8 5.3-22.3-4.5-45.8-18.9-53.1-32.6l-2.4-4.5.4-176.5c.3-135 .1-177.5-.8-180.9-1.5-5.2-4.6-8.3-10.2-10-8-2.4-31.5-15.1-40.9-22.2-12.1-9.1-23.3-20-32.2-31.4-7.1-9-16.1-23.6-19.3-31-7.4-17.1-10.9-29.5-13-45.2-5.1-37.9 3.6-75.3 25-107.8 33.2-50.3 95.3-79.5 156.6-73.5z"/><path d="M615.7 376.5c-12.9 4.9-21.1 16.5-21 30 0 8.7 2.4 14.5 8.8 21.4 6.5 7 12.8 9.6 23.5 9.6 7.3 0 9.3-.4 14.2-2.8 6.2-3 11.5-8.3 15-14.9 3.3-6.3 3.3-20.3-.1-26.8-3.2-6.2-8.6-11.7-14.6-14.8-6.2-3.2-19.6-4.1-25.8-1.7zM364 972.9c-12.7 6.7-9.5 23.9 5 26.6 4.6.8 11.2-1.7 14.5-5.6 9.9-11.9-5.5-28.5-19.5-21zM424.2 1034.6c-3.4 3.1-6.2 5.9-6.2 6.3 0 .4 8 8.6 17.8 18.3 25.4 25.3 46.3 42.9 82.6 69.3 14.6 10.6 14.9 10.8 16.5 8.8.9-1.1 3.4-4.2 5.6-6.8l4-4.8-4.5-4c-2.5-2.1-15.8-12.4-29.6-22.7-13.9-10.4-30-23-35.8-28-7.9-6.9-31.4-29.1-43.7-41.4-.3-.3-3.3 1.9-6.7 5z"/></svg>