<svg xmlns="http://www.w3.org/2000/svg" viewBox="0 0 431.76 431.76"><path d="M215.88 85.12C153.556 85.164 103.044 135.676 103 198a128.48 128.48 0 0 0 53.36 102.48V382c.027.932.216 1.853.56 2.72v.64c.138.33.299.651.48.96l28.16 41.92a7.999 7.999 0 0 0 6.64 3.52h46.56a7.999 7.999 0 0 0 6.64-3.52l28.16-41.92c.181-.309.342-.63.48-.96v-.64a8.005 8.005 0 0 0 .56-2.72v-81.52A128.477 128.477 0 0 0 327.96 198c-.042-62.013-50.069-112.397-112.08-112.88zM234.92 416h-38.08l-17.44-25.92h72.88L234.92 416zm-62.48-41.92v-21.2h86.88l.08 21.2h-86.96zM263 289.52v.24a7.998 7.998 0 0 0-3.6 6.72v40.64h-86.96V296a7.998 7.998 0 0 0-3.6-6.72 112.001 112.001 0 0 1-49.76-91.52c1.537-53.483 46.14-95.594 99.623-94.057 51.323 1.475 92.582 42.734 94.057 94.057A112 112 0 0 1 263 289.52z" fill="#0e69ab"/><path d="M219.08 121.36a8 8 0 0 0 0 16c33.251.044 60.196 26.989 60.24 60.24a8 8 0 0 0 16 0c-.044-42.088-34.152-76.196-76.24-76.24zM81.48 189.6h-57.6a8 8 0 0 0 0 16h57.6a8 8 0 0 0 0-16zM407.88 189.6h-57.6a8 8 0 0 0 0 16h57.6a8 8 0 0 0 0-16zM127.313 287.12a8 8 0 0 0-12.153 0v-.16L74.28 328a8 8 0 1 0 11.28 11.28l40.88-40.88a8 8 0 0 0 .873-11.28zM356.607 56a8 8 0 0 0-10.407 0l-40.88 40.88a8 8 0 0 0 5.68 13.68l-.08-.08a8.004 8.004 0 0 0 5.68-2.32l40.88-40.88a8 8 0 0 0-.873-11.28zM359.067 329.609A7.96 7.96 0 0 0 357.48 328l-40.88-41.04a8 8 0 1 0-11.28 11.28l40.88 40.88a8 8 0 0 0 12.867-9.511zM126.44 96.88L85.56 56a8 8 0 0 0-11.28 11.28l40.88 40.88a8 8 0 0 0 11.28-11.28zM215.88 0a8 8 0 0 0-8 8v57.84a8 8 0 0 0 8 8.24 8 8 0 0 0 8-8V8a8 8 0 0 0-8-8z" fill="#0e69ab"/></svg>